{"title":"King Kong - [horror] - (1933) - BDRip x264 - [=Faith=]","uid":12043375,"size":1293703779,"categoryP":"video","categoryS":"movies","magnet":"?xt=urn:btih:b80fa39131acf4c710e5b0d37e2f8b7938687cc1&amp;dn=King+Kong+-+%5Bhorror%5D+-+%281933%29+-+BDRip+x264+-+%5B%3DFaith%3D%5D&amp;tr=udp%3A%2F%2Ftracker.openbittorrent.com%3A80&amp;tr=udp%3A%2F%2Fopen.demonii.com%3A1337&amp;tr=udp%3A%2F%2Ftracker.coppersurfer.tk%3A6969&amp;tr=udp%3A%2F%2Fexodus.desync.com%3A6969","seeders":0,"leechers":1,"uploader":"Faithwyn","files":6,"time":1434830701,"description":" King Kong - 1933\n\n\nA film crew goes to a tropical island for an exotic location shoot and discovers\na colossal giant gorilla who takes a shine to their female blonde star.\n\n\nThe Film:\n\nDirected by: Merian C. Cooper, Ernest B. Schoedsack\nProduced by: Merian C. Cooper, Ernest B. Schoedsack, David O. Selznick\nScreenplay by: James Ashmore Creelman, Ruth Rose\nStory by: Merian C. Cooper, Edgar Wallace\nStarring: Fay Wray, Bruce Cabot,Robert Armstrong\nMusic by: Max Steiner\nCinematography: Eddie Linden, J.O. Taylor, Vernon Walker\nEdited by : Ted Cheesman\nDistributed by: RKO Radio Pictures\nRelease date: March 2, 1933\nRunning time: 100 minutes\nCountry: United States\nLanguage: English\nSubtitles: English\nIMDB Rating: 8.0\n\n\nKing Kong is a 1933 American Pre-Code fantasy monster/adventure film directed\nand produced by Merian C. Cooper and Ernest B. Schoedsack. The screenplay by \nJames Ashmore Creelman and Ruth Rose was from an idea conceived by Cooper and \nEdgar Wallace. It stars Fay Wray, Bruce Cabotand Robert Armstrong, and opened \nin New York City on March 2, 1933 to rave reviews.\n\nThe film tells of a gigantic, prehistoric, island-dwelling ape called Kong who \ndies in an attempt to possess a beautiful young woman. King Kong is distinguished \nfor its stop-motion animation by Willis O'Brien and a full-length musical score \nby Max Steiner. In 1991, it was deemed &quot;culturally, historically and aesthetically \nsignificant&quot; by the Library of Congress and selected for preservation in the \nNational Film Registry. It has been remade twice: in 1976 and in 2005.\n\n\n\n\nGeneral:\n\nComplete name : King Kong (1933).m4v\nFormat : MPEG-4\nFormat profile : Base Media / Version 2\nCodec ID : mp42\nFile size : 1.20 GiB\nDuration : 1h 40min\nOverall bit rate mode : Variable\nOverall bit rate : 1 722 Kbps\nMovie name : King Kong\nGenre : Horror\nRecorded date : 1933\nEncoded date : UTC 2015-06-19 19:37:17\nTagged date : UTC 2015-06-19 20:34:52\nWriting application : HandBrake 0.9.9\n\n\n\nVideo:\n\nID : 1\nFormat : AVC\nFormat/Info : Advanced Video Codec\nFormat profile : &lt;a class=&quot;__cf_email__&quot; href=&quot;/cdn-cgi/l/email-protection&quot; data-cfemail=&quot;f4bc9d939cb4b8c0dac5&quot;&gt;[email&amp;#160;protected]&lt;/a&gt;&lt;script data-cfhash='f9e31' type=&quot;text/javascript&quot;&gt;\n/* &lt;![CDATA[ */!function(){try{var t=&quot;currentScript&quot;in document?document.currentScript:function(){for(var t=document.getElementsByTagName(&quot;script&quot;),e=t.length;e--;)if(t[e].getAttribute(&quot;data-cfhash&quot;))return t[e]}();if(t&amp;&amp;t.previousSibling){var e,r,n,i,c=t.previousSibling,a=c.getAttribute(&quot;data-cfemail&quot;);if(a){for(e=&quot;&quot;,r=parseInt(a.substr(0,2),16),n=2;a.length-n;n+=2)i=parseInt(a.substr(n,2),16)^r,e+=String.fromCharCode(i);e=document.createTextNode(e),c.parentNode.replaceChild(e,c)}t.parentNode.removeChild(t);}}catch(u){}}()/* ]]&gt; */&lt;/script&gt;\nFormat settings, CABAC : Yes\nFormat settings, ReFrames : 5 frames\nCodec ID : avc1\nCodec ID/Info : Advanced Video Coding\nDuration : 1h 40mn\nBit rate : 1 620 Kbps\nWidth : 976 pixels\nHeight : 720 pixels\nDisplay aspect ratio : 4:3\nFrame rate mode : Variable\nFrame rate : 23.976 fps\nMinimum frame rate : 23.810 fps\nMaximum frame rate : 1 000.000 fps\nColor space : YUV\nChroma subsampling : 4:2:0\nBit depth : 8 bits\nScan type : Progressive\nBits/(Pixel*Frame) : 0.096\nStream size : 1.13 GiB (94%)\nWriting library : x264 core 130 r2273 b3065e6\nEncoding settings : (see .nfo file for details)\nEncoded date : UTC 2015-06-19 19:37:17\nTagged date : UTC 2015-06-19 20:34:52\n\n\nAudio:\n\nID : 2\nFormat : AAC\nFormat/Info : Advanced Audio Codec\nFormat profile : LC\nCodec ID : 40\nDuration : 1h 40mn\nBit rate mode : Variable\nBit rate : 96.0 Kbps\nMaximum bit rate : 141 Kbps\nChannel(s) : 1 channel\nChannel positions : Front: C\nSampling rate : 48.0 KHz\nCompression mode : Lossy\nStream size : 68.7 MiB (6%)","torrent":{"xt":"urn:btih:b80fa39131acf4c710e5b0d37e2f8b7938687cc1","amp;dn":"King+Kong+-+%5Bhorror%5D+-+%281933%29+-+BDRip+x264+-+%5B%3DFaith%3D%5D","amp;tr":["udp%3A%2F%2Ftracker.openbittorrent.com%3A80","udp%3A%2F%2Fopen.demonii.com%3A1337","udp%3A%2F%2Ftracker.coppersurfer.tk%3A6969","udp%3A%2F%2Fexodus.desync.com%3A6969"],"infoHash":"b80fa39131acf4c710e5b0d37e2f8b7938687cc1","infoHashBuffer":{"type":"Buffer","data":[184,15,163,145,49,172,244,199,16,229,176,211,126,47,139,121,56,104,124,193]},"announce":[],"urlList":[]}}